<?xml version="1.0" encoding="UTF-8"?>
<svg version="1.1" xmlns="http://www.w3.org/2000/svg" width="96" height="96">
<path d="M0 0 C10.69967513 7.10112969 19.47220189 16.5653651 22.828125 29.265625 C24.97994959 43.63483386 24.17483739 57.39922622 15.98828125 69.734375 C8.25573877 79.97344078 -1.60837437 88.46148865 -14.69921875 90.421875 C-32.14501174 91.85115955 -45.0523065 89.23955053 -58.6640625 77.765625 C-67.29308072 69.75970875 -72.36647506 59.47359102 -73.015625 47.765625 C-73.30600399 38.92920762 -72.95332994 31.51362335 -69.578125 23.234375 C-68.22960967 18.91912595 -68.54682433 14.80337137 -68.8515625 10.33203125 C-68.67120305 6.88670334 -67.785919 5.139089 -65.69921875 2.421875 C-65.03921875 2.421875 -64.37921875 2.421875 -63.69921875 2.421875 C-62.70921875 4.731875 -61.71921875 7.041875 -60.69921875 9.421875 C-59.89871094 8.64263672 -59.89871094 8.64263672 -59.08203125 7.84765625 C-43.26836804 -6.95371364 -19.21624508 -11.23496818 0 0 Z " fill="#EF8733" transform="translate(72.69921875,5.578125)"/>
<path d="M0 0 C2.52591678 2.40959166 4.27398463 4.97811189 6 8 C6.37769531 8.64324219 6.75539062 9.28648438 7.14453125 9.94921875 C8.21772867 11.93081548 9.12923946 13.92178484 10 16 C10.30035156 16.70253906 10.60070312 17.40507812 10.91015625 18.12890625 C13.85015367 26.21048056 13.26519913 34.53327211 13 43 C10.90163884 40.90163884 9.78583001 38.97389739 8.375 36.375 C7.92898437 35.55773438 7.48296875 34.74046875 7.0234375 33.8984375 C6.68570313 33.27195313 6.34796875 32.64546875 6 32 C5.67 32 5.34 32 5 32 C5.32226562 32.71671875 5.64453125 33.4334375 5.9765625 34.171875 C8.20993664 40.34348905 7.80355049 46.86309766 5.25 52.875 C1.71037426 59.81811203 -2.57140301 63.94018745 -9.6875 67.25 C-15.61185315 68.59136298 -21.61075723 69.12434954 -27.1875 66.5 C-27.785625 66.005 -28.38375 65.51 -29 65 C-25.47531624 62.17847285 -21.67320292 60.01730814 -17.75 57.8125 C-17.1003125 57.44447266 -16.450625 57.07644531 -15.78125 56.69726562 C-14.18889373 55.79571097 -12.5946362 54.89751583 -11 54 C-11.66 53.34 -12.32 52.68 -13 52 C-17.13830989 52.30096799 -19.51847024 52.67898016 -23 55 C-28.21546487 55.64722941 -34.02368381 56.15008514 -38.625 53.25 C-42.25619835 49.80991736 -42.25619835 49.80991736 -43 47 C-42.85673566 43.49002372 -42.65690229 41.67955409 -40.1875 39.125 C-38 38 -38 38 -34 38 C-33.92910156 37.24332031 -33.85820313 36.48664062 -33.78515625 35.70703125 C-32.775714 32.22671542 -31.4913521 31.53701606 -28.4375 29.6875 C-27.61121094 29.17574219 -26.78492187 28.66398437 -25.93359375 28.13671875 C-25.29550781 27.76160156 -24.65742187 27.38648437 -24 27 C-24.60328125 26.96261719 -25.2065625 26.92523437 -25.828125 26.88671875 C-33.76625659 26.23374341 -33.76625659 26.23374341 -37 23 C-36.54996653 17.37458159 -35.31558515 14.38512875 -32 10 C-36.56304939 11.93277924 -36.56304939 11.93277924 -39.625 15.6875 C-43.16022664 19.12969436 -46.45855325 18.51586103 -51.22265625 18.46875 C-54.23901356 17.95966016 -55.16859637 17.38272582 -57 15 C-53.41414832 6.8063289 -44.97931187 2.21338804 -37 -1 C-26.95285626 -4.51281554 -9.43151907 -5.77873812 0 0 Z " fill="#257CAD" transform="translate(68,3)"/>
<path d="M0 0 C3 1 3 1 4.1640625 3.234375 C6.35584552 10.48569453 5.54568003 17.37193532 2.1328125 24.06640625 C-1.33989049 29.993951 -5.46306747 33.3549151 -11.6875 36.25 C-17.61185315 37.59136298 -23.61075723 38.12434954 -29.1875 35.5 C-29.785625 35.005 -30.38375 34.51 -31 34 C-27.47531624 31.17847285 -23.67320292 29.01730814 -19.75 26.8125 C-18.77546875 26.26045898 -18.77546875 26.26045898 -17.78125 25.69726562 C-16.18889373 24.79571097 -14.5946362 23.89751583 -13 23 C-14.65 21.68 -16.3 20.36 -18 19 C-15.14285714 11.42857143 -15.14285714 11.42857143 -11 9 C-11.99 8.67 -12.98 8.34 -14 8 C-13.5359375 7.1028125 -13.5359375 7.1028125 -13.0625 6.1875 C-11.89790296 3.91043228 -11.89790296 3.91043228 -11 1 C-8.5625 1.8125 -8.5625 1.8125 -6 3 C-5.67 3.99 -5.34 4.98 -5 6 C-4.01 6 -3.02 6 -2 6 C-1.34 4.02 -0.68 2.04 0 0 Z " fill="#164A78" transform="translate(70,34)"/>
<path d="M0 0 C7.46218487 2.82352941 7.46218487 2.82352941 9 6.1875 C9.33 7.115625 9.66 8.04375 10 9 C10.495 10.03125 10.99 11.0625 11.5 12.125 C14.70550611 19.62620973 16.0784508 28.89575943 15 37 C14.34 37.66 13.68 38.32 13 39 C12.98582031 38.16339844 12.97164062 37.32679687 12.95703125 36.46484375 C12.42857232 23.56758936 9.6719015 11.96170963 1 2 C0.67 1.34 0.34 0.68 0 0 Z " fill="#E7D35D" transform="translate(68,4)"/>
<path d="M0 0 C1.98 0 3.96 0 6 0 C3.72588684 2.44904494 1.66315143 4.21135597 -1.1875 6 C-4.16702079 7.64097829 -4.16702079 7.64097829 -4.4375 10.0625 C-4.7159375 11.0215625 -4.7159375 11.0215625 -5 12 C-7.30252483 13.06902939 -9.6372026 14.07175817 -12 15 C-12.33 15.66 -12.66 16.32 -13 17 C-13.66 17 -14.32 17 -15 17 C-13.647446 12.4505002 -12.02081482 11.31196852 -8 9 C-7.30062468 7.68352881 -6.63270867 6.34977849 -6 5 C-2.57142857 2 -2.57142857 2 0 2 C0 1.34 0 0.68 0 0 Z " fill="#DB903A" transform="translate(39,29)"/>
<path d="M0 0 C0.66 0.66 1.32 1.32 2 2 C-7.405 6.95 -7.405 6.95 -17 12 C-17.33 11.34 -17.66 10.68 -18 10 C-15.94047642 8.70337462 -13.87762943 7.41264273 -11.8125 6.125 C-11.23435547 5.76019531 -10.65621094 5.39539062 -10.06054688 5.01953125 C-6.79721967 2.9914748 -3.61940638 1.29507949 0 0 Z " fill="#DA8D2B" transform="translate(56,56)"/>
<path d="M0 0 C1.98 0 3.96 0 6 0 C3.0094833 3.33557632 0.06815373 5.15083921 -4 7 C-4.33 6.01 -4.66 5.02 -5 4 C-3.35 3.34 -1.7 2.68 0 2 C0 1.34 0 0.68 0 0 Z " fill="#DAA236" transform="translate(39,29)"/>
<path d="M0 0 C3.73884332 2.65654657 5.64978174 4.58110387 7 9 C6.34 9 5.68 9 5 9 C5 11.97 5 14.94 5 18 C4.67 18 4.34 18 4 18 C3.81824219 16.67935547 3.81824219 16.67935547 3.6328125 15.33203125 C3.46523437 14.17058594 3.29765625 13.00914063 3.125 11.8125 C2.96257812 10.66394531 2.80015625 9.51539063 2.6328125 8.33203125 C2.05939755 5.31275375 1.25240957 2.79424152 0 0 Z " fill="#E5C850" transform="translate(71,32)"/>
<path d="M0 0 C0.99 0 1.98 0 3 0 C3 4.29 3 8.58 3 13 C0.62389859 10.62389859 0.66047915 9.75657693 0.375 6.5 C0.30023438 5.7059375 0.22546875 4.911875 0.1484375 4.09375 C0.05187345 2.7316886 0 1.36548008 0 0 Z " fill="#0F4D83" transform="translate(78,33)"/>
<path d="M0 0 C2.51239382 3.76859072 3.12663199 6.26239249 3.0625 10.6875 C3.05347656 11.49574219 3.04445313 12.30398437 3.03515625 13.13671875 C3.02355469 13.75160156 3.01195313 14.36648437 3 15 C1.46417013 12.16163087 0.51269491 9.52324478 -0.1875 6.375 C-0.36667969 5.59898438 -0.54585938 4.82296875 -0.73046875 4.0234375 C-1 2 -1 2 0 0 Z " fill="#F4E156" transform="translate(78,14)"/>
<path d="M0 0 C0 4.01474237 -1.66781767 5.81975137 -4 9 C-4.33 9 -4.66 9 -5 9 C-5 6.69 -5 4.38 -5 2 C-3.35 1.34 -1.7 0.68 0 0 Z " fill="#D1A048" transform="translate(36,12)"/>
<path d="M0 0 C0.99 0.66 1.98 1.32 3 2 C-2.445 4.475 -2.445 4.475 -8 7 C-8 6.34 -8 5.68 -8 5 C-6.25 3.7109375 -6.25 3.7109375 -4 2.375 C-3.2575 1.92898437 -2.515 1.48296875 -1.75 1.0234375 C-1.1725 0.68570313 -0.595 0.34796875 0 0 Z " fill="#C57B37" transform="translate(46,61)"/>
</svg>
